# xmcd
# 
# Track frame offsets:
#   150
#   791
#   14404
#   36222
#   55593
#   72276
#   92633
#   111906
#   126806
#   144960
#   161720
#   180586
#   195234
#   210328
#   227315
#   246136
#   264339
#   281341
# 
# Disc length: 3994 seconds
# 
# Revision: 1
# Processed by: cddbd v1.5.1PL0 Copyright (c) Steve Scherf et al.
# Submitted via: VOLTOCDX V1.0.24 
# 
DISCID=db0f9812
DTITLE=My Artist - My Title
DYEAR=2005
DGENRE=Description of the extended genre
TTITLE0=
TTITLE1=What Up Gangsta?
TTITLE2=Patiently Waiting (feat. Emine
TTITLE3=Many Men (Wish Death)
TTITLE4=In Da Club (Dirty)
TTITLE5=High All the Time
TTITLE6=HEAT
TTITLE7=If I Can't
TTITLE8=Blood Hound (feat. Young Buc)
TTITLE9=Back Down (Dirty)
TTITLE10=P.I.M.P.
TTITLE11=Like My Style (feat. Tony Yayo
TTITLE12=Poor Lil' Rich
TTITLE13=21 Questions (Featuring Nate D
TTITLE14=Don't Push Me (feat. Eminem &
TTITLE15=Gotta Get
TTITLE16=Wanksta
TTITLE17=The Good Die Young
EXTD=Extended CD description
EXTT0=
EXTT1=
EXTT2=
EXTT3=
EXTT4=
EXTT5=
EXTT6=
EXTT7=
EXTT8=
EXTT9=
EXTT10=
EXTT11=
EXTT12=
EXTT13=
EXTT14=
EXTT15=
EXTT16=
EXTT17=
PLAYORDER=
